<?xml version="1.0" encoding="UTF-8" standalone="no"?>
<!-- Generator: Adobe Illustrator 17.0.0, SVG Export Plug-In . SVG Version: 6.00 Build 0)  -->

<svg
   xmlns:dc="http://purl.org/dc/elements/1.1/"
   xmlns:cc="http://creativecommons.org/ns#"
   xmlns:rdf="http://www.w3.org/1999/02/22-rdf-syntax-ns#"
   xmlns:svg="http://www.w3.org/2000/svg"
   xmlns="http://www.w3.org/2000/svg"
   xmlns:sodipodi="http://sodipodi.sourceforge.net/DTD/sodipodi-0.dtd"
   xmlns:inkscape="http://www.inkscape.org/namespaces/inkscape"
   version="1.1"
   id="Layer_1"
   x="0px"
   y="0px"
   width="42px"
   height="42px"
   viewBox="0 0 42 42"
   enable-background="new 0 0 42 42"
   xml:space="preserve"
   inkscape:version="0.91 r13725"
   sodipodi:docname="SDBVAR.svg"><metadata
   id="metadata21"><rdf:RDF><cc:Work
       rdf:about=""><dc:format>image/svg+xml</dc:format><dc:type
         rdf:resource="http://purl.org/dc/dcmitype/StillImage" /><dc:title></dc:title></cc:Work></rdf:RDF></metadata><defs
   id="defs19">
	
	
	
	
	
	
</defs><sodipodi:namedview
   pagecolor="#ffffff"
   bordercolor="#666666"
   borderopacity="1"
   objecttolerance="10"
   gridtolerance="10"
   guidetolerance="10"
   inkscape:pageopacity="0"
   inkscape:pageshadow="2"
   inkscape:window-width="1920"
   inkscape:window-height="1130"
   id="namedview17"
   showgrid="false"
   inkscape:zoom="3.9732667"
   inkscape:cx="-34.76135"
   inkscape:cy="63.622881"
   inkscape:window-x="-4"
   inkscape:window-y="-4"
   inkscape:window-maximized="1"
   inkscape:current-layer="Layer_1" />
<path
   style="fill:#f7f7f7"
   inkscape:connector-curvature="0"
   id="path7"
   d="m 19.387,17.719 0,0.344 c 0,0.896 0.268,0.992 1.051,1.316 l 0,-2.709 c -0.84,0 -1.051,0.228 -1.051,1.049 z" /><path
   style="fill:#f7f7f7"
   inkscape:connector-curvature="0"
   id="path9"
   d="m 21.525,22.318 0,2.977 c 0.877,-0.037 1.088,-0.305 1.088,-1.184 l 0,-0.361 c 0,-1.031 -0.172,-1.051 -1.088,-1.432 z" /><path
   style="fill:#f7f7f7"
   inkscape:connector-curvature="0"
   id="path11"
   d="M 21,7.499 7.497,21 21,34.503 34.503,21 21,7.499 Z m 0.525,20.011 0,1.182 c 0,0.346 -0.039,0.555 -0.42,0.555 l -0.305,0 c -0.42,0 -0.362,-0.191 -0.362,-0.555 l 0,-1.162 c -0.802,-0.02 -1.623,-0.039 -2.424,-0.135 -0.459,-0.057 -0.992,-0.096 -0.992,-0.668 l 0,-0.648 c 0,-0.592 0.057,-0.916 0.725,-0.916 0.896,0 1.795,0.133 2.691,0.152 l 0,-3.455 c -0.344,-0.152 -0.688,-0.305 -1.031,-0.457 -1.928,-0.84 -2.385,-1.393 -2.385,-3.512 0,-1.469 0.438,-2.576 1.889,-3.111 0.496,-0.172 0.992,-0.285 1.527,-0.305 l 0,-1.203 c 0,-0.572 0.19,-0.514 0.668,-0.514 0.305,0 0.42,0.248 0.42,0.514 l 0,1.203 c 0.725,0 1.469,0.02 2.194,0.096 0.458,0.057 1.011,0.076 1.011,0.668 l 0,0.629 c 0,0.611 -0.076,0.916 -0.744,0.916 -0.687,0 -1.373,-0.113 -2.061,-0.113 l -0.4,0 0,3.148 c 0.973,0.4 2.824,1.049 3.264,2.119 0.171,0.457 0.189,1.01 0.189,1.488 0,0.764 -0.019,2.004 -0.361,2.672 -0.574,1.105 -1.968,1.336 -3.093,1.412 z" /><path
   style="fill:#3d6480"
   inkscape:connector-curvature="0"
   id="path13"
   d="M 21,5.095 5.093,21 21,36.907 36.907,21 21,5.095 Z M 7.497,21 21,7.499 34.503,21 21,34.503 7.497,21 Z" /><path
   style="fill:#3d6480"
   inkscape:connector-curvature="0"
   id="path15"
   d="m 24.789,21.938 c -0.439,-1.07 -2.291,-1.719 -3.264,-2.119 l 0,-3.149 0.4,0 c 0.688,0 1.374,0.113 2.061,0.113 0.668,0 0.744,-0.305 0.744,-0.916 l 0,-0.629 c 0,-0.592 -0.553,-0.611 -1.011,-0.668 -0.726,-0.076 -1.47,-0.096 -2.194,-0.096 l 0,-1.203 c 0,-0.266 -0.115,-0.514 -0.42,-0.514 -0.478,0 -0.668,-0.059 -0.668,0.514 l 0,1.203 c -0.535,0.02 -1.031,0.133 -1.527,0.305 -1.45,0.535 -1.889,1.643 -1.889,3.111 0,2.119 0.457,2.672 2.385,3.512 0.344,0.152 0.688,0.305 1.031,0.457 l 0,3.455 c -0.896,-0.02 -1.795,-0.152 -2.691,-0.152 -0.668,0 -0.725,0.324 -0.725,0.916 l 0,0.648 c 0,0.572 0.533,0.611 0.992,0.668 0.801,0.096 1.622,0.115 2.424,0.135 l 0,1.162 c 0,0.363 -0.058,0.555 0.362,0.555 l 0.306,0 c 0.381,0 0.42,-0.209 0.42,-0.555 l 0,-1.181 c 1.125,-0.076 2.519,-0.307 3.092,-1.412 0.343,-0.668 0.361,-1.908 0.361,-2.672 10e-4,-0.479 -0.018,-1.031 -0.189,-1.488 z m -4.351,-2.559 c -0.783,-0.324 -1.051,-0.42 -1.051,-1.316 l 0,-0.344 c 0,-0.82 0.211,-1.049 1.051,-1.049 l 0,2.709 z m 2.175,4.732 c 0,0.879 -0.211,1.146 -1.088,1.184 l 0,-2.977 c 0.916,0.381 1.088,0.4 1.088,1.432 l 0,0.361 z" />
<g
   transform="translate(148.77966,27.050848)"
   id="g8107"><path
     d="m -120.6322,0.38474576 0,12.40000024 12.4,0 0,-12.40000024 -12.4,0 z m 11.6,11.70000024 -10.8,0 0,-10.9000002 10.8,0 0,10.9000002 z"
     id="path17-6"
     inkscape:connector-curvature="0"
     style="fill:#3d6480" /><polygon
     points="37.4,30.9 36.1,29.6 30.5,35.1 28.8,33.3 27.4,34.6 30.5,37.8 "
     id="polygon19-5"
     style="fill:#3d6480"
     transform="translate(-146.47627,-26.937288)" /></g><g
   id="g8133"
   transform="matrix(0.78274753,0,0,0.83166017,58.746535,44.170982)"><path
     sodipodi:nodetypes="ccssssscscccccscscccscscscccsccccsccccsccccscccscc"
     d="m -56.620895,-39.845737 0.337022,-0.355932 0,-7.555 c 0,-2.099 -4.906433,-2.324 -7.015807,-2.324 -2.071113,0 -6.885922,0.226 -6.885922,2.324 l 0,13.112 c 0,2.324 5.363548,2.505 7.007752,2.505 1.691526,0 3.270285,-0.169 4.447305,-0.476 1.62306,-0.424 2.446672,-1.106 2.446672,-2.029 l 0,-4.757 -0.24239,-0.711864 0.188762,0.166915 -0.105432,-0.177966 z m -1.029288,5.201068 c 0,0.068 -0.253729,0.41 -1.427729,0.716 -1.051163,0.274 -2.544338,0.432 -4.098931,0.432 -3.943874,0 -5.641441,-0.871 -5.641441,-1.147 l -10e-4,-3.444 c 0.33025,0.153 0.734001,0.288 1.227363,0.402 1.177021,0.272 2.747723,0.423 4.422133,0.423 0.79542,0 3.897558,-0.054 5.519612,-0.808 z m 0,-4.144 c -0.763201,0.479 -2.72658,0.887 -5.519612,0.887 -2.798066,0 -4.864145,-0.417 -5.649496,-0.903 l -10e-4,-3.615 c 0.33025,0.153 0.735008,0.289 1.229377,0.404 1.17702,0.272 2.747723,0.422 4.423139,0.422 0.795421,0 3.896552,-0.054 5.518606,-0.808 l 0,3.613 z m 0,-4.33 c -0.763201,0.478 -2.72658,0.886 -5.518605,0.886 -1.60393,0 -3.16255,-0.147 -4.276138,-0.406 -0.666542,-0.154 -1.105533,-0.329 -1.376379,-0.497 l -0.001,-3.374 c 0.331257,0.153 0.737022,0.29 1.231391,0.404 1.17702,0.272 2.747723,0.422 4.423139,0.422 0.795421,0 3.896552,-0.054 5.518606,-0.808 l 0,3.373 z m 0,-4.09 c -0.763201,0.478 -2.72658,0.886 -5.518605,0.886 -1.60393,0 -3.16255,-0.147 -4.276138,-0.406 -0.668556,-0.155 -1.107547,-0.33 -1.378393,-0.498 l 0,-0.497 c 0.163112,-0.338 2.00466,-0.999 5.524646,-0.999 3.57637,0 5.476317,0.669 5.64849,0.967 z"
     id="path13-3"
     inkscape:connector-curvature="0"
     style="fill:#3d6480" /><path
     d="m -67.557591,-37.727608 c -0.49,-0.114 -0.891,-0.25 -1.219,-0.402 l 10e-4,3.444 c 0,0.276 1.686,1.147 5.603,1.147 1.544,0 3.027,-0.157 4.071,-0.432 1.166,-0.306 1.418,-0.647 1.418,-0.716 l 0,-3.427 c -1.611,0.754 -4.693,0.808 -5.482,0.808 -1.663,10e-4 -3.223,-0.149 -4.392,-0.422 z"
     id="path43"
     inkscape:connector-curvature="0"
     style="fill:#ffecce" /><path
     d="m -67.624042,-42.029198 c -0.491,-0.115 -0.893,-0.25 -1.221,-0.404 l 0.001,3.615 c 0.78,0.487 2.832,0.903 5.611,0.903 2.775,0 4.724,-0.408 5.482,-0.887 l 0,-3.613 c -1.611,0.754 -4.692,0.808 -5.481,0.808 -1.663,0 -3.223,-0.149 -4.392,-0.422 z"
     id="path37"
     inkscape:connector-curvature="0"
     style="fill:#ffecce" /><path
     d="m -67.560621,-46.124372 c -0.491,-0.115 -0.895,-0.251 -1.223,-0.404 l 10e-4,3.374 c 0.27,0.168 0.705,0.343 1.367,0.497 1.107,0.258 2.655,0.406 4.248,0.406 2.774,0 4.723,-0.408 5.481,-0.886 l 0,-3.373 c -1.611,0.754 -4.692,0.808 -5.481,0.808 -1.664,-0.001 -3.224,-0.15 -4.393,-0.422 z"
     id="path41"
     inkscape:connector-curvature="0"
     style="fill:#ffecce" /><path
     d="m -68.784121,-47.737398 0,0.497 c 0.27,0.168 0.706,0.344 1.369,0.498 1.107,0.259 2.655,0.407 4.248,0.407 2.774,0 4.723,-0.408 5.481,-0.886 l 0,-0.548 c -0.171,-0.298 -2.059,-0.967 -5.61,-0.967 -3.496,0 -5.326,0.661 -5.488,0.999 z"
     id="path39"
     inkscape:connector-curvature="0"
     style="fill:#ffecce" /></g></svg>